# xmcd
#
# Track frame offsets:
# 150
# 15899
# 28907
# 44927
# 64316
# 81435
# 94855
# 117510
# 132056
# 145771
#
# Disc length: 2258 seconds
#
#
# Revision: 0
# Processed by: cddbd v1.5.1PL0 Copyright (c) Steve Scherf et al.
# Submitted via: FreeRIP 2.92 
#
DISCID=8d08d00a
DTITLE=Nicole Watts Jenkins - Nicole
DYEAR=1900
DGENRE=Gospel
TTITLE0=01 Promise
TTITLE1=02 Praise God, It's Settled, I'm Saved
TTITLE2=03 Run and Tell
TTITLE3=04 I Want To Love You, Lord
TTITLE4=05 Clap Your Hands
TTITLE5=06 Absolutely Positively
TTITLE6=07 He'll Do It Again
TTITLE7=08 When He Spoke
TTITLE8=90 Send A Miracle
TTITLE9=10 All He's Done For Me
EXTD=
EXTT0=
EXTT1=
EXTT2=
EXTT3=
EXTT4=
EXTT5=
EXTT6=
EXTT7=
EXTT8=
EXTT9=
PLAYORDER=
